<svg xmlns="http://www.w3.org/2000/svg" viewBox="0 0 39.9 49.26"><defs><style>.cls-1{fill:#21d8cd;}</style></defs><title>Asset 1</title><g id="Layer_2" data-name="Layer 2"><g id="Layer_1-2" data-name="Layer 1"><path class="cls-1" d="M31.34,13.13l-3.18-.67c-3.75-.8-5.24-2.21-5.24-4.32,0-2.65,2.49-4.3,5.89-4.3S34.72,5.63,35,8.54h4.36C39.22,3.48,35,0,28.87,0S18.34,3.42,18.34,8.38c0,4.18,2.63,6.88,8.44,8.1l3.15.67c3.88.84,5.41,2.25,5.41,4.5,0,2.59-2.63,4.48-6.31,4.48s-6.35-1.58-6.93-4.24v-.08c-.17-4.91-5.13-8.37-11.26-8.37C4.47,13.44,0,16.8,0,21.58c0,4.12,2.66,6.76,8.82,8l.95-3.45c-4.19-.87-5.83-2.44-5.83-4.73,0-3,3-4.72,6.79-4.72,4,0,6.57,1.95,6.91,5.12l.1,27.44h4.42l0-20.81A14,14,0,0,0,28.85,30c6.75,0,11-3.44,11-8.9C39.9,16.84,37.41,14.41,31.34,13.13Z"/></g></g></svg>