<?xml version="1.0" encoding="UTF-8"?>
<svg width="38px" height="68px" viewBox="0 0 38 68" version="1.1" xmlns="http://www.w3.org/2000/svg" xmlns:xlink="http://www.w3.org/1999/xlink">
    <!-- Generator: Sketch 51.3 (57544) - http://www.bohemiancoding.com/sketch -->
    <title>logomark</title>
    <desc>Created with Sketch.</desc>
    <defs>
        <path d="M16.3535534,0.353553391 L32,16 L0,16 L15.6464466,0.353553391 C15.8417088,0.158291245 16.1582912,0.158291245 16.3535534,0.353553391 Z" id="path-1"></path>
        <filter x="-12.5%" y="-25.3%" width="131.2%" height="163.3%" filterUnits="objectBoundingBox" id="filter-2">
            <feOffset dx="1" dy="1" in="SourceAlpha" result="shadowOffsetOuter1"></feOffset>
            <feGaussianBlur stdDeviation="1.5" in="shadowOffsetOuter1" result="shadowBlurOuter1"></feGaussianBlur>
            <feColorMatrix values="0 0 0 0 0   0 0 0 0 0   0 0 0 0 0  0 0 0 0.2 0" type="matrix" in="shadowBlurOuter1"></feColorMatrix>
        </filter>
        <path d="M16,62 L16,32 L31.81684,46.5920538 C32.0610533,46.8173563 32.0610533,47.1826437 31.81684,47.4079462 L16,62 Z" id="path-3"></path>
        <filter x="-25.0%" y="-13.3%" width="162.5%" height="133.3%" filterUnits="objectBoundingBox" id="filter-4">
            <feOffset dx="1" dy="1" in="SourceAlpha" result="shadowOffsetOuter1"></feOffset>
            <feGaussianBlur stdDeviation="1.5" in="shadowOffsetOuter1" result="shadowBlurOuter1"></feGaussianBlur>
            <feColorMatrix values="0 0 0 0 0   0 0 0 0 0   0 0 0 0 0  0 0 0 0.2 0" type="matrix" in="shadowBlurOuter1"></feColorMatrix>
        </filter>
    </defs>
    <g id="Page-1" stroke="none" stroke-width="1" fill="none" fill-rule="evenodd">
        <g id="Home" transform="translate(-130.000000, -36.000000)" fill-rule="nonzero">
            <g id="logomark" transform="translate(132.000000, 38.000000)">
                <g id="Triangle">
                    <use fill="black" fill-opacity="1" filter="url(#filter-2)" xlink:href="#path-1"></use>
                    <use fill="#2CC6B3" xlink:href="#path-1"></use>
                </g>
                <g id="Triangle-Copy-2">
                    <use fill="black" fill-opacity="1" filter="url(#filter-4)" xlink:href="#path-3"></use>
                    <use fill="#2CC6B3" xlink:href="#path-3"></use>
                </g>
                <polygon id="Triangle-2-Copy" fill="#ABFFF3" transform="translate(12.150000, 20.373328) rotate(-315.000000) translate(-12.150000, -20.373328) " points="12.15 14.8733279 23.3 25.8733279 1 25.8733279"></polygon>
                <polygon id="Triangle-2-Copy-2" fill="#ABFFF3" transform="translate(12.150000, 50.273328) rotate(-315.000000) translate(-12.150000, -50.273328) " points="12.15 44.7733279 23.3 55.7733279 1 55.7733279"></polygon>
                <path d="M16.5,61.6933333 C16.5,61.8627007 16.3880712,62 16.25,62 C16.1119288,62 16,61.8627007 16,61.6933333 L16,16.3066667 C16,16.1372993 16.1119288,16 16.25,16 C16.3880712,16 16.5,16.1372993 16.5,16.3066667 L16.5,61.6933333 Z" id="Stroke-8" fill="#FFFFFF"></path>
                <path d="M0.307692308,16.5 C0.137758539,16.5 0,16.3880712 0,16.25 C0,16.1119288 0.137758539,16 0.307692308,16 L31.6923077,16 C31.8622415,16 32,16.1119288 32,16.25 C32,16.3880712 31.8622415,16.5 31.6923077,16.5 L0.307692308,16.5 Z" id="Stroke-7" fill="#FFFFFF"></path>
            </g>
        </g>
    </g>
</svg>